<svg xmlns="http://www.w3.org/2000/svg" width="182" height="203" fill="none" viewBox="0 0 182 203"><circle cx="118.232" cy="55.608" r="18" stroke="#000" stroke-width="10" transform="rotate(-7.19983 118.232 55.6077)"/><circle cx="83.264" cy="73.864" r="18" stroke="#000" stroke-width="10" transform="rotate(-7.19983 83.2642 73.8637)"/><circle cx="62.617" cy="106.95" r="18" stroke="#000" stroke-width="10" transform="rotate(-7.19983 62.617 106.95)"/><circle cx="62.114" cy="145.534" r="18" stroke="#000" stroke-width="10" transform="rotate(-7.19983 62.1135 145.534)"/><path fill="#000" d="M95.9835 151.376C83.9502 147.993 72.0001 155 72.0001 155L78.5001 144L76.6792 132.256C107.852 144.636 118.178 132.81 124.267 123.054L136 130.5C136 130.5 111.101 171.538 107.129 176.328C103.157 181.119 88.9501 172.915 94.5473 168.353C100.145 163.791 107.939 154.738 95.9835 151.376Z"/><path fill="#000" d="M130.5 61.4999C127 69.9999 112 72.9999 112 72.9999C136.82 95.5606 130.355 113.298 124.267 123.054L136 130.5C136 130.5 162.032 89.9241 164.589 84.2515C167.147 78.5789 153.534 69.4218 151.896 76.4541C150.258 83.4864 145.552 94.4657 137.278 85.2037C128.951 75.8816 130.5 61.4999 130.5 61.4999Z"/></svg>